<?xml version="1.0" encoding="UTF-8"?>
<svg version="1.1" xmlns="http://www.w3.org/2000/svg" width="450" height="181">
<path d="M0 0 C148.5 0 297 0 450 0 C450 59.73 450 119.46 450 181 C301.5 181 153 181 0 181 C0 121.27 0 61.54 0 0 Z " fill="#FEFEFE" transform="translate(0,0)"/>
<path d="M0 0 C9.57 0 19.14 0 29 0 C38.14524568 19.59695503 47.09609208 39.26239745 55.89819336 59.01568604 C57.72189068 63.10811799 59.54736879 67.19974607 61.37524414 71.29031372 C62.23573183 73.21803549 63.09350191 75.14695105 63.95117188 77.07592773 C64.46744141 78.23165283 64.98371094 79.38737793 65.515625 80.578125 C65.97227539 81.60325195 66.42892578 82.62837891 66.89941406 83.68457031 C67.79905272 85.91074387 67.79905272 85.91074387 69 87 C76.47468833 70.47125882 83.81000852 53.89583347 90.921875 37.20703125 C96.2196029 24.77814608 101.62144994 12.39405013 107 0 C116.57 0 126.14 0 136 0 C136 0.66 136 1.32 136 2 C134.33333333 3.66666667 132.66666667 5.33333333 131 7 C126.8380168 12.78053222 125.84825136 16.75754129 125.82299805 23.75341797 C125.81642685 24.5425206 125.80985565 25.33162323 125.80308533 26.14463806 C125.78335371 28.7604889 125.7716844 31.37628207 125.76171875 33.9921875 C125.75764322 34.888913 125.7535677 35.7856385 125.74936867 36.70953751 C125.72849943 41.46423359 125.71420654 46.21890083 125.70483398 50.97363281 C125.6938227 55.85668345 125.65948697 60.73927169 125.61966228 65.62215996 C125.59334592 69.39888276 125.58512847 73.17549845 125.58155251 76.95230484 C125.57671804 78.75021581 125.56519511 80.54812303 125.54651451 82.34594345 C125.44177199 93.10293965 126.19200686 101.84013378 130 112 C130.33 113.32 130.66 114.64 131 116 C120.77 116 110.54 116 100 116 C100.82339157 111.88304215 101.87963577 108.29641802 103.28125 104.37890625 C104.90353513 99.00949513 105.14182883 93.73066277 105.11352539 88.15869141 C105.11367142 87.39703674 105.11381744 86.63538208 105.1139679 85.85064697 C105.11327518 83.35092246 105.10551299 80.85127388 105.09765625 78.3515625 C105.09578979 76.61135906 105.09436696 74.87115509 105.09336853 73.13095093 C105.08956131 68.56401097 105.07974642 63.99710311 105.06866455 59.43017578 C105.05841177 54.76465285 105.05386264 50.09912471 105.04882812 45.43359375 C105.03812247 36.28904844 105.0210677 27.1445269 105 18 C102.98448769 22.56262657 100.96959856 27.1255277 98.95523071 31.68865967 C98.27314152 33.2335716 97.59089634 34.77841468 96.90847778 36.32318115 C92.36133964 46.61673947 87.84922321 56.92453241 83.375 67.25 C82.81798827 68.53167842 82.2607981 69.8132793 81.70343018 71.09480286 C79.21041351 76.82842005 76.75232965 82.57200454 74.36685181 88.3510437 C73.20325155 91.16481602 72.02553048 93.97257298 70.84649658 96.77990723 C70.28658062 98.12436763 69.73367632 99.47177174 69.18817139 100.82214355 C68.43454588 102.68674669 67.65535993 104.54095777 66.875 106.39453125 C66.22144531 107.98551636 66.22144531 107.98551636 65.5546875 109.60864258 C64 112 64 112 61.3203125 112.8503418 C60.55460937 112.899729 59.78890625 112.94911621 59 113 C58.59386475 112.07703125 58.18772949 111.1540625 57.76928711 110.203125 C49.90570176 92.34909399 41.96921193 74.5410758 33.57788086 56.92773438 C27.47442638 44.061995 21.75297765 31.02517494 16 18 C15.90688549 27.70185591 15.83602639 37.40355549 15.79275131 47.10576248 C15.77197032 51.61201125 15.74382858 56.11795192 15.69824219 60.62402344 C15.65444268 64.98125949 15.63079175 69.33820117 15.62049103 73.69564056 C15.61316032 75.34925717 15.59884697 77.0028596 15.57707977 78.65634918 C15.41728611 91.31009798 16.24575899 102.40715287 24.828125 112.4765625 C26 114 26 114 26 116 C17.75 116 9.5 116 1 116 C2.71557155 111.71107113 4.63388929 107.76744166 6.78125 103.6953125 C9.38515229 97.93668244 10.25383279 92.66467311 10.29052734 86.37158203 C10.29724457 85.64374512 10.30396179 84.9159082 10.31088257 84.16601562 C10.32975055 81.77987688 10.33378087 79.39402102 10.3359375 77.0078125 C10.34237266 75.33543791 10.34910155 73.66306443 10.35610962 71.99069214 C10.36805397 68.49230338 10.37179332 64.99401316 10.37060547 61.49560547 C10.37040231 57.03147638 10.39771337 52.56798411 10.43214989 48.10400581 C10.45447782 44.65169418 10.45844123 41.19953447 10.45738602 37.74715805 C10.45973276 36.10225097 10.46850364 34.4573391 10.48405075 32.81250381 C10.57330671 22.39554832 10.43226564 12.99696123 2.75 5.0625 C0 2.18316832 0 2.18316832 0 0 Z " fill="#C82B36" transform="translate(180,29)"/>
<path d="M0 0 C2.30834961 0.07714844 2.30834961 0.07714844 5 1 C6.32053309 3.31494503 7.19348244 5.28113679 8.06640625 7.765625 C8.47365433 8.84616402 8.47365433 8.84616402 8.88912964 9.9485321 C9.79896591 12.37582257 10.68003323 14.81263953 11.5625 17.25 C12.20307709 18.97025929 12.84578932 20.68972481 13.49047852 22.40844727 C14.90320252 26.18456894 16.30410328 29.9647934 17.69628906 33.74853516 C21.46797005 43.99577115 25.29470472 54.22236258 29.13131714 64.44543457 C30.41139178 67.86769995 31.67912917 71.29434475 32.94555664 74.72167969 C38.37588648 89.32046597 43.8247668 103.32417185 53 116 C53 116.33 53 116.66 53 117 C42.44 117 31.88 117 21 117 C21.495 115.02 21.495 115.02 22 113 C23.28238089 99.38703364 17.7362656 87.63004161 13 75 C-5.315 74.505 -5.315 74.505 -24 74 C-28.12503275 87.4912644 -28.12503275 87.4912644 -29.25 101.25 C-29.25773437 102.03890625 -29.26546875 102.8278125 -29.2734375 103.640625 C-29.25982778 107.66910226 -29.1175103 110.47081617 -27 114 C-27 114.99 -27 115.98 -27 117 C-33.93 117 -40.86 117 -48 117 C-46.50334451 114.00668903 -45.12245932 111.70832715 -43.19824219 109.04443359 C-39.45502865 103.4786535 -37.18026487 97.54283403 -34.828125 91.2890625 C-34.35973206 90.07030426 -33.89133911 88.85154602 -33.40875244 87.59585571 C-32.17260928 84.37808317 -30.95005771 81.15532695 -29.73117065 77.9309845 C-28.54957418 74.81044834 -27.35705039 71.69409199 -26.16601562 68.57714844 C-23.34535785 61.18220268 -20.54614366 53.77924282 -17.75 46.375 C-15.87113908 41.40313594 -13.99065242 36.43188773 -12.109375 31.4609375 C-11.66597778 30.28915955 -11.22258057 29.11738159 -10.76574707 27.91009521 C-7.23235743 18.58499893 -3.64176667 9.28326721 0 0 Z " fill="#C82B37" transform="translate(366,28)"/>
<path d="M0 0 C2.2902832 0.00927734 2.2902832 0.00927734 5 1 C6.40780387 3.66562 7.39486387 6.02323959 8.35546875 8.8515625 C8.6547226 9.67729263 8.95397644 10.50302277 9.26229858 11.35377502 C9.91286443 13.15578679 10.55413035 14.96117631 11.18728638 16.76937866 C12.54561147 20.64741234 13.94845253 24.50886072 15.34831238 28.37205505 C16.08733568 30.41348962 16.82395186 32.45579702 17.55830383 34.49891663 C21.37192975 45.09856927 25.36382106 55.62772439 29.39712524 66.14544678 C30.53468175 69.11488421 31.66555689 72.0867993 32.7956543 75.05908203 C35.99208198 83.43591613 39.23977904 91.78549141 42.78125 100.0234375 C43.0497023 100.65738937 43.3181546 101.29134125 43.59474182 101.94450378 C45.6741188 106.68280654 48.34423208 110.59211056 51.71484375 114.49609375 C53 116 53 116 53 117 C42.44 117 31.88 117 21 117 C21.165 114.31875 21.33 111.6375 21.5 108.875 C21.82743075 97.63753669 18.06507901 88.15657693 13.734375 77.94506836 C13 76 13 76 13 74 C0.79 74.33 -11.42 74.66 -24 75 C-29.68577016 90.63586795 -32.06277341 100.9678842 -27 117 C-34.26 117 -41.52 117 -49 117 C-46.03 112.545 -46.03 112.545 -43 108 C-37.32124999 98.07191138 -33.37783804 87.51538002 -29.48989868 76.79177856 C-27.77485506 72.06318171 -26.03186405 67.34486576 -24.29296875 62.625 C-23.76203865 61.18067345 -23.76203865 61.18067345 -23.22038269 59.70716858 C-19.50802841 49.62416528 -15.67424045 39.58906266 -11.8125 29.5625 C-11.50280273 28.75587921 -11.19310547 27.94925842 -10.87402344 27.11819458 C-7.38045925 18.02079932 -3.81603119 8.96805501 0 0 Z " fill="#060606" transform="translate(79,28)"/>
<path d="M0 0 C10.56 0 21.12 0 32 0 C31.34 1.65 30.68 3.3 30 5 C25.88336081 15.54518401 25.39215421 25.10398103 25.43359375 36.2421875 C25.42834258 37.98129607 25.42206073 39.72040179 25.41481018 41.45950317 C25.40446817 45.08528142 25.40887654 48.71066571 25.42358398 52.33642578 C25.44075096 56.94123817 25.41726981 61.54480012 25.38209438 66.14947319 C25.35994069 69.73589053 25.36160503 73.32201699 25.3698597 76.9084816 C25.37066964 78.60424291 25.36399316 80.30002772 25.34908867 81.99572372 C25.27338923 92.16468494 26.25819365 100.545456 29.92835999 110.07644653 C31 113 31 113 31 116 C21.1 116 11.2 116 1 116 C1.82339157 111.88304215 2.87963577 108.29641802 4.28125 104.37890625 C5.87917639 99.09011729 6.15552395 93.85539448 6.17700195 88.36499023 C6.18685875 87.25383095 6.18685875 87.25383095 6.19691467 86.120224 C6.21652688 83.68301262 6.22828566 81.24586263 6.23828125 78.80859375 C6.24235678 77.96978228 6.2464323 77.1309708 6.25063133 76.2667408 C6.27144474 71.82325619 6.28576456 67.379802 6.29516602 62.9362793 C6.30619641 58.37951291 6.34057072 53.82323938 6.38033772 49.26664639 C6.40666451 45.73441246 6.41487217 42.20229293 6.41844749 38.66996956 C6.42327522 36.99207305 6.43477824 35.31418031 6.45348549 33.63638115 C6.58259621 21.28535906 4.62487098 11.56217744 0 0 Z " fill="#020202" transform="translate(138,29)"/>
<path d="M0 0 C2.05331208 2.05331208 2.60754614 3.20475836 3.60400391 5.8671875 C3.90416412 6.66141113 4.20432434 7.45563477 4.51358032 8.27392578 C4.83136444 9.13228027 5.14914856 9.99063477 5.4765625 10.875 C5.80667328 11.75526855 6.13678406 12.63553711 6.47689819 13.54248047 C7.17373833 15.40429638 7.86789284 17.26711933 8.55957031 19.13085938 C9.62159065 21.99081882 10.69291584 24.84715989 11.765625 27.703125 C12.44065886 29.51020956 13.1151563 31.31749461 13.7890625 33.125 C14.11089508 33.98335449 14.43272766 34.84170898 14.76431274 35.72607422 C15.05816864 36.52029785 15.35202454 37.31452148 15.65478516 38.1328125 C15.91522614 38.83293457 16.17566711 39.53305664 16.44400024 40.25439453 C17 42 17 42 17 44 C6.11 44 -4.78 44 -16 44 C-15.32076878 40.60384391 -14.7245481 37.98685939 -13.50952148 34.85229492 C-13.20928574 34.07186325 -12.90904999 33.29143158 -12.59971619 32.48735046 C-12.27677078 31.6600795 -11.95382538 30.83280853 -11.62109375 29.98046875 C-11.28956802 29.12189774 -10.9580423 28.26332672 -10.61647034 27.3787384 C-9.56059091 24.64684607 -8.49912889 21.91716251 -7.4375 19.1875 C-6.7190313 17.3315233 -6.00092815 15.47540504 -5.28320312 13.61914062 C-3.52636713 9.07777589 -1.76452246 4.53838342 0 0 Z " fill="#F7F7F7" transform="translate(73,54)"/>
<path d="M0 0 C2.29041169 2.07915248 3.53609638 3.80116616 4.62573242 6.68945312 C4.90579636 7.42031128 5.18586029 8.15116943 5.47441101 8.9041748 C5.76516006 9.68860962 6.05590912 10.47304443 6.35546875 11.28125 C6.66196854 12.0911438 6.96846832 12.9010376 7.28425598 13.73547363 C7.92932622 15.44539214 8.57040601 17.15682065 9.20776367 18.86962891 C10.18518142 21.49377512 11.17650864 24.11234182 12.16992188 26.73046875 C12.79510177 28.39291692 13.41947825 30.05566749 14.04296875 31.71875 C14.3397905 32.50318481 14.63661224 33.28761963 14.94242859 34.0958252 C16.08761854 37.18876075 17 39.67394816 17 43 C6.11 43 -4.78 43 -16 43 C-14.1295264 36.76508799 -12.27134214 30.80722923 -9.86328125 24.8046875 C-9.57897751 24.08636749 -9.29467377 23.36804749 -9.00175476 22.62796021 C-8.10920708 20.37541376 -7.21097836 18.12518646 -6.3125 15.875 C-5.69948901 14.33088028 -5.08685579 12.78661053 -4.47460938 11.2421875 C-2.98742121 7.49304831 -1.49514024 3.74597463 0 0 Z " fill="#FDF9F9" transform="translate(360,55)"/>
</svg>
